<?xml version="1.0" encoding="utf-8"?>
<!-- Generator: Adobe Illustrator 25.4.1, SVG Export Plug-In . SVG Version: 6.00 Build 0)  -->
<svg version="1.1" id="Capa_1" xmlns="http://www.w3.org/2000/svg" xmlns:xlink="http://www.w3.org/1999/xlink" x="0px" y="0px"
	 viewBox="0 0 1080 669.18" style="enable-background:new 0 0 1080 669.18;" xml:space="preserve">
<style type="text/css">
	.st0{fill:#5EB130;}
	.st1{fill:#529933;}
	.st2{fill:#FCC10A;}
	.st3{fill:#FFDE00;}
	.st4{fill:#262626;}
	.st5{font-family:'aliensandcows';}
	.st6{font-size:75.7105px;}
</style>
<g>
	<polygon points="273.51,476.28 272.76,475.53 272.76,476.28 	"/>
	<g>
		<g>
			<polygon class="st0" points="617.23,164.3 514.38,164.3 514.38,165.24 592.61,243.47 633.14,243.47 633.14,480.99 692.91,480.99 
				692.91,239.97 			"/>
			<polygon class="st1" points="749.18,164.3 617.23,164.3 692.91,239.97 692.91,480.99 712.31,480.99 712.31,243.47 828.36,243.47 
							"/>
		</g>
		<g>
			<polygon class="st2" points="571.66,243.48 571.66,243.47 493.42,165.24 492.49,164.31 325.41,164.31 221.96,164.31 
				247.85,226.99 501.77,226.99 559.98,285.21 559.98,413.5 571.66,401.83 			"/>
			<polygon class="st3" points="501.77,226.99 247.85,226.99 252.2,237.52 254.97,244.23 254.97,406.5 328.87,480.62 328.87,243.48 
				492.49,243.48 492.49,400.65 343.22,400.65 343.22,401.59 421.46,479.83 492.49,479.83 492.49,481 559.98,413.5 559.98,285.21 
							"/>
		</g>
		<g>
			<polygon points="230.14,226.99 204.25,164.31 188.95,164.3 30.6,322.65 188.95,480.99 208.92,480.99 98.16,358.97 			"/>
			<polygon class="st4" points="227.78,401.06 149.36,322.65 227.78,244.23 234.49,237.52 230.14,226.99 98.16,358.97 
				208.92,480.99 227.78,480.99 306.95,480.99 306.95,480.24 			"/>
		</g>
		<g>
			<polygon points="1006.49,333.52 837.27,164.3 772.29,164.3 772.29,164.31 851.46,243.48 930.64,322.66 772.29,481 855.63,480.99 
							"/>
			<polygon class="st4" points="891.05,164.31 851.47,164.31 851.47,164.3 837.27,164.3 1006.49,333.52 855.63,480.99 772.29,481 
				891.05,481 1049.4,322.66 			"/>
		</g>
	</g>
	<text transform="matrix(1 0 0 1 103.2714 583.4335)" class="st5 st6">web designer &amp; development</text>
	<g>
		<text transform="matrix(1 0 0 1 356.6332 112.4408)" class="st5 st6">daniel tafur</text>
	</g>
</g>
</svg>
